<?xml version="1.0" standalone="no"?>
<!DOCTYPE svg PUBLIC "-//W3C//DTD SVG 20010904//EN"
 "http://www.w3.org/TR/2001/REC-SVG-20010904/DTD/svg10.dtd">
<svg version="1.0" xmlns="http://www.w3.org/2000/svg"
 width="1536.000000pt" height="1024.000000pt" viewBox="0 0 1536.000000 1024.000000"
 preserveAspectRatio="xMidYMid meet">

<g transform="translate(0.000000,1024.000000) scale(0.100000,-0.100000)"
fill="#000000" stroke="none">
<path d="M4310 6793 c-203 -11 -382 -50 -561 -123 -792 -321 -1193 -1209 -919
-2033 232 -696 876 -1143 1605 -1114 164 6 302 32 466 87 565 188 978 676
1079 1275 19 114 22 154 17 330 -6 224 -22 321 -83 497 -141 406 -423 723
-819 921 -151 75 -391 141 -555 152 -160 11 -175 11 -230 8z m210 -475 c62
-32 83 -65 84 -133 1 -49 3 -55 21 -54 47 3 67 -2 90 -26 22 -21 25 -33 25
-95 l0 -70 -370 0 -370 0 0 71 c0 39 5 79 10 90 24 44 109 63 163 35 l27 -15
0 63 c0 75 20 108 84 137 61 28 178 26 236 -3z m-620 -293 l0 -85 -100 0 -100
0 0 -840 0 -840 675 0 675 0 0 840 0 840 -100 0 -100 0 0 86 0 85 151 -3 151
-3 34 -38 34 -37 -2 -929 -3 -929 -25 -27 c-54 -57 -17 -55 -817 -55 -719 0
-739 1 -771 20 -18 11 -41 34 -52 52 -20 32 -20 52 -20 943 0 708 3 915 13
935 7 13 28 35 46 47 31 21 45 23 172 23 l139 0 0 -85z m970 -1000 l0 -615
-125 0 -125 0 0 615 0 615 125 0 125 0 0 -615z m-375 -180 l0 -435 -127 0
-128 0 0 435 0 435 128 0 127 0 0 -435z m-375 -130 l0 -305 -130 0 -130 0 0
305 0 305 130 0 130 0 0 -305z"/>
<path d="M11713 5734 c-2 -7 -3 -97 -1 -201 l3 -190 -43 48 c-106 119 -316
102 -423 -33 -95 -121 -116 -337 -46 -487 32 -69 112 -144 176 -166 119 -39
265 0 314 83 l22 37 3 -57 3 -58 82 0 82 0 -2 516 -3 516 -81 1 c-53 1 -83 -2
-86 -9z m-84 -442 c71 -58 97 -145 80 -268 -19 -136 -90 -201 -206 -192 -69 6
-101 29 -136 99 -70 138 -30 323 83 382 51 27 132 17 179 -21z"/>
<path d="M8700 5729 c-30 -5 -87 -25 -127 -44 -149 -73 -225 -215 -239 -445
-18 -307 130 -522 386 -561 150 -23 282 8 369 87 56 50 106 142 117 212 l7 42
-105 0 -105 0 -12 -40 c-25 -83 -89 -130 -178 -130 -78 0 -121 17 -174 70 -53
53 -81 125 -93 240 -15 143 39 306 119 362 118 83 271 46 322 -77 l18 -45 102
0 103 0 -7 33 c-22 116 -102 227 -191 265 -87 38 -200 49 -312 31z"/>
<path d="M6395 5630 l0 -90 158 0 157 0 0 -425 0 -425 105 0 105 0 0 425 0
425 150 0 150 0 0 90 0 90 -412 0 -413 0 0 -90z"/>
<path d="M10481 5563 c-30 -87 -110 -315 -178 -507 -67 -193 -123 -351 -123
-353 0 -2 44 -3 99 -3 114 0 95 -19 153 157 l33 103 185 0 185 0 45 -130 45
-130 102 0 102 0 -84 243 c-46 133 -118 339 -160 457 -42 118 -85 238 -94 265
l-18 50 -119 3 -119 2 -54 -157z m243 -229 c38 -118 66 -217 63 -220 -2 -2
-65 -3 -139 -2 l-135 3 66 217 c36 120 69 218 72 218 3 0 36 -97 73 -216z"/>
<path d="M7340 5203 l0 -508 268 5 268 5 76 38 c166 82 252 243 251 472 -1
173 -51 304 -150 395 -96 87 -125 94 -440 98 l-273 3 0 -508z m485 316 c24 -7
59 -30 87 -58 59 -59 81 -129 81 -253 -1 -111 -23 -184 -77 -245 -61 -70 -98
-83 -243 -83 l-123 0 0 331 0 332 118 -6 c64 -3 135 -11 157 -18z"/>
<path d="M12326 5460 c-43 -13 -99 -56 -121 -92 l-20 -33 -3 63 -3 62 -74 0
-75 0 0 -375 0 -375 80 0 80 0 0 220 c0 121 5 242 11 270 21 100 114 153 203
116 62 -26 66 -47 66 -346 l0 -260 85 0 85 0 0 243 c0 232 1 245 23 287 32 63
67 85 133 85 45 0 58 -4 81 -28 l28 -27 3 -280 3 -280 85 0 85 0 -3 298 c-3
283 -4 299 -25 338 -47 89 -129 131 -234 121 -72 -6 -133 -38 -167 -87 -31
-45 -38 -48 -47 -21 -9 31 -80 89 -122 100 -45 13 -116 13 -157 1z"/>
<path d="M9450 5100 l0 -80 280 0 280 0 0 80 0 80 -280 0 -280 0 0 -80z"/>
</g>
</svg>
